<?xml version="1.0" standalone="no"?>
<!DOCTYPE svg PUBLIC "-//W3C//DTD SVG 20010904//EN"
 "http://www.w3.org/TR/2001/REC-SVG-20010904/DTD/svg10.dtd">
<svg version="1.0" xmlns="http://www.w3.org/2000/svg"
 width="64.000000pt" height="64.000000pt" viewBox="0 0 64.000000 64.000000"
 preserveAspectRatio="xMidYMid meet">

<g transform="translate(0.000000,64.000000) scale(0.100000,-0.100000)"
fill="white" stroke="none">
<path d="M253 571 c-2 -10 -19 -23 -36 -28 -49 -14 -57 -41 -57 -202 0 -128
-2 -142 -16 -137 -31 12 -44 -13 -44 -85 l0 -69 220 0 220 0 0 69 c0 72 -13
97 -44 85 -14 -5 -16 9 -16 137 0 161 -8 188 -57 202 -17 5 -34 18 -36 28 -4
16 -15 19 -67 19 -52 0 -63 -3 -67 -19z m117 -36 l0 -35 -50 0 -50 0 0 35 0
35 50 0 50 0 0 -35z m-118 -27 c3 -21 8 -23 68 -23 60 0 65 2 68 23 4 26 28
29 54 5 28 -26 23 -59 -12 -73 -46 -19 -60 -55 -60 -160 0 -53 4 -90 10 -90 6
0 10 38 10 95 0 88 2 98 25 120 13 14 29 25 35 25 6 0 10 -44 10 -124 l0 -124
-36 -27 c-31 -24 -46 -28 -104 -28 -59 -1 -73 3 -104 27 l-36 27 0 125 c0 79
4 124 10 124 6 0 22 -11 35 -25 23 -22 25 -32 25 -120 0 -57 4 -95 10 -95 6 0
10 37 10 90 0 105 -14 141 -60 160 -34 14 -40 43 -13 72 23 25 51 23 55 -4z
m-54 -363 c52 -41 61 -44 90 -36 19 6 45 6 63 1 28 -8 37 -5 89 35 32 25 63
45 69 45 7 0 11 -24 11 -60 l0 -60 -200 0 -200 0 0 60 c0 33 4 60 10 60 5 0
36 -20 68 -45z"/>
</g>
</svg>
