<?xml version="1.0" standalone="no"?>
<!DOCTYPE svg PUBLIC "-//W3C//DTD SVG 20010904//EN"
 "http://www.w3.org/TR/2001/REC-SVG-20010904/DTD/svg10.dtd">
<svg version="1.0" xmlns="http://www.w3.org/2000/svg"
 width="64.000000pt" height="64.000000pt" viewBox="0 0 64.000000 64.000000"
 preserveAspectRatio="xMidYMid meet">

<g transform="translate(0.000000,64.000000) scale(0.100000,-0.100000)"
fill="#000000" stroke="none">
<path d="M257 584 c-4 -4 -7 -16 -7 -26 0 -12 -7 -18 -24 -18 -50 0 -56 -18
-56 -185 l0 -154 -32 -3 -33 -3 -3 -72 -3 -73 221 0 221 0 -3 73 -3 72 -32 3
-33 3 0 154 c0 166 -6 185 -55 185 -17 0 -25 6 -27 23 -3 20 -9 22 -63 25 -34
2 -64 0 -68 -4z m118 -49 l0 -40 -55 0 c-53 0 -55 1 -58 28 -6 51 3 58 60 55
l53 -3 0 -40z m-123 -27 c3 -21 8 -23 68 -23 60 0 65 2 68 23 2 14 10 22 22
22 47 0 70 -73 28 -89 -51 -19 -63 -46 -66 -152 -3 -67 0 -99 7 -99 7 0 11 33
11 97 0 86 3 99 22 120 42 45 48 33 48 -101 l0 -124 -37 -29 c-33 -25 -46 -28
-104 -28 -54 1 -73 5 -103 25 l-36 25 0 128 c0 136 4 145 47 105 21 -20 23
-30 23 -120 0 -64 4 -98 11 -98 7 0 10 32 7 99 -3 106 -15 133 -65 152 -43 16
-20 89 27 89 12 0 20 -8 22 -22z m-54 -361 c51 -39 60 -43 86 -34 19 6 40 6
62 -1 31 -9 37 -7 91 34 32 24 64 44 70 44 16 0 25 -37 21 -86 l-3 -39 -205 0
-205 0 -3 39 c-4 47 5 86 19 86 6 0 36 -20 67 -43z"/>
</g>
</svg>
